PathFileType	4	(X/Y/Z)	D:\Documents\my_script\MATLAB\opensim\convert_file_format\tsv_to_trc\CE_8km_M.tsv
DataRate	CameraRate	NumFrames	NumMarkers	Units	OrigDataRate	OrigDataStartFrame	OrigNumFrames
200	200	14	23	mm	200	2199	200
Frame#	Time	Top.Head			L.Acromium			R.Acromium			Sternum			L.ASIS			R.ASIS			V.Sacral			L.Knee.Lat			L.Knee.Med			L.Ankle.Lat			L.Ankle.Med			L.Heel			L.Toe.Lat			L.Toe.Med			L.Toe.Tip			R.Knee.Lat			R.Knee.Med			R.Ankle.Lat			R.Ankle.Med			R.Heel			R.Toe.Lat			R.Toe.Med			R.Toe.Tip		
		X1	Y1	Z1	X2	Y2	Z2	X3	Y3	Z3	X4	Y4	Z4	X5	Y5	Z5	X6	Y6	Z6	X7	Y7	Z7	X8	Y8	Z8	X9	Y9	Z9	X10	Y10	Z10	X11	Y11	Z11	X12	Y12	Z12	X13	Y13	Z13	X14	Y14	Z14	X15	Y15	Z15	X16	Y16	Z16	X17	Y17	Z17	X18	Y18	Z18	X19	Y19	Z19	X20	Y20	Z20	X21	Y21	Z21	X22	Y22	Z22	X23	Y23	Z23
2399	11.99	-46.214	1710.312	357.476	180.137	1436.959	364.071	-207.765	1410.378	316.668	-17.582	1375.958	433.815	155.972	923.904	380.76	-125.283	930.279	364.369	23.149	984.285	193.167	175.867	479.075	195.721	53.423	441.706	171.398	166.987	257.748	-123.393	79.529	222.105	-100.511	99.934	313.31	-200.128	196.016	138.401	-162.389	95.458	98.722	-129.287	151.461	52.863	-109.219	-142.882	479.553	420.343	-4.455	459.133	445.025	-89.483	89.208	424.801	-6.189	114.11	460	-25.233	35.134	350.147	-135.36	43.053	544.739	-31.172	47.937	572.739	-85.963	71.998	609.35
2400	11.995	-47.155	1706.898	357.3	179.172	1433.552	362.919	-209.341	1406.327	317.347	-18.158	1372.25	433.767	155.604	920.597	380.75	-125.849	928.714	364.726	21.114	980.544	192.385	176.982	474.191	200.903	53.645	436.213	176.468	166.434	261.043	-123.715	79.919	224.353	-100.971	99.102	317.408	-199.076	196.876	142.798	-164.621	96.864	101.646	-131.717	153.374	55.96	-112.634	-143.453	478.148	423.843	-4.79	457.209	446.521	-88.855	88.969	415.413	-5.103	112.53	451.16	-25.111	35.755	339.834	-135.124	41.054	535.121	-30.501	44.636	563.36	-85.056	67.549	600.569
2401	12	-48.078	1703.476	357.12	178.307	1430.061	361.631	-210.883	1402.189	318.188	-18.647	1368.441	433.757	155.237	917.14	380.688	-126.518	926.842	364.711	19.135	976.68	191.449	177.847	469.34	206.109	53.126	430.885	181.779	165.891	264.264	-123.465	80.319	226.568	-100.859	98.345	321.367	-197.52	197.696	147.098	-166.136	98.226	104.584	-133.446	155.195	59.078	-115.305	-144.101	476.989	427.514	-5.013	455.483	447.531	-88.355	89.16	405.892	-4.233	111.798	442.663	-24.846	36.458	329.535	-135.158	40.426	525.239	-30.082	42.735	553.727	-84.528	64.657	591.449
2402	12.005	-48.481	1700.116	356.506	177.349	1426.58	360.167	-212.393	1398.239	319.093	-19.061	1364.541	433.794	154.841	913.56	380.528	-127.259	925.008	364.564	17.285	972.695	190.396	178.478	464.57	211.332	52.583	425.512	187.378	165.362	267.406	-122.619	80.709	228.758	-100.171	97.671	325.187	-195.434	198.489	151.289	-166.908	99.525	107.488	-134.47	156.905	62.183	-117.185	-144.857	476.003	431.128	-5.228	454.071	448.439	-88.046	89.508	396.408	-3.611	111.426	433.9	-24.663	37.299	319.289	-135.148	40.114	515.113	-29.786	41.631	543.91	-84.283	62.796	581.841
2403	12.01	-48.802	1696.84	355.852	176.634	1423.019	358.684	-213.793	1394.315	320.029	-19.452	1360.631	433.883	154.432	909.896	380.257	-128.026	923.141	364.353	15.636	968.615	189.24	178.823	459.877	216.641	52.049	420.184	193.321	165.433	270.437	-120.963	81.061	230.94	-98.898	97.165	328.89	-192.831	199.239	155.36	-166.877	100.728	110.357	-134.788	158.445	65.258	-118.25	-145.761	475.092	434.455	-5.524	452.961	449.103	-87.86	89.915	387.117	-3.254	111.23	425.168	-24.547	38.21	309.072	-135.199	39.735	505.099	-29.537	40.663	534.141	-84.148	60.867	572.371
2404	12.015	-49.519	1693.615	355.556	176.064	1419.486	357.136	-215.197	1390.245	321.19	-19.763	1356.738	434.003	154.01	906.224	379.88	-128.966	921.355	364.089	15.436	964.338	188.396	178.917	455.281	222.096	51.494	415.021	199.615	165.776	273.43	-118.524	81.354	233.122	-97.055	96.831	332.478	-189.708	199.943	159.276	-166.004	101.803	113.224	-134.389	159.802	68.282	-118.46	-146.817	474.066	437.272	-5.972	452.041	449.452	-87.836	90.291	377.858	-3.09	111.072	416.424	-24.527	39.169	298.915	-135.26	39.346	495.215	-29.356	39.762	524.449	-84.109	58.944	563.034
2405	12.02	-50.185	1690.529	355.251	175.55	1416.057	355.56	-216.517	1386.26	322.394	-19.951	1352.909	434.125	153.648	902.525	379.388	-130.054	919.663	363.838	16.372	960.007	187.797	178.869	450.78	227.806	50.867	410.164	206.244	166.137	276.309	-115.367	81.552	235.303	-94.63	96.709	335.933	-186.073	200.613	162.999	-164.216	102.72	116.046	-133.297	160.911	71.222	-117.804	-147.91	472.768	439.535	-6.563	451.086	449.488	-87.806	90.636	368.682	-3.044	110.971	407.6	-24.733	40.05	288.786	-135.382	39.052	485.303	-29.27	39.014	514.671	-84.193	57.355	553.618
2406	12.025	-50.341	1687.559	354.542	175.337	1412.687	354.071	-217.531	1382.491	323.278	-20.076	1349.2	434.229	153.343	898.852	378.773	-131.197	917.994	363.656	17.543	955.775	187.246	178.788	446.476	233.766	52.297	404.804	213.342	166.46	279.048	-111.505	81.618	237.481	-91.677	96.791	339.239	-181.971	201.239	166.475	-161.499	103.441	118.791	-131.487	161.753	74.038	-116.251	-149.048	471.052	440.938	-7.398	449.923	449.653	-87.775	90.914	359.383	-2.912	110.751	398.484	-24.92	40.847	278.666	-135.65	38.773	475.302	-29.363	38.359	504.823	-84.409	55.961	544.067
2407	12.03	-50.9	1684.701	354.243	175.065	1409.538	352.537	-218.597	1378.717	324.376	-20.079	1345.686	434.296	153.289	895.181	378.057	-132.363	916.29	363.532	18.718	951.793	186.71	178.699	442.403	240.001	52.347	400.386	220.53	166.75	281.607	-106.953	81.531	239.631	-88.231	97.067	342.36	-177.44	201.81	169.69	-157.833	103.969	121.447	-128.982	162.318	76.691	-113.79	-150.165	468.833	441.329	-8.4	448.277	449.381	-87.7	91.11	349.879	-2.73	110.431	389.22	-25.031	41.465	268.503	-135.966	38.506	465.202	-29.528	37.769	494.852	-84.676	54.748	534.36
2408	12.035	-51.501	1681.982	353.999	174.835	1406.613	351.042	-219.55	1375.056	325.406	-19.94	1342.408	434.286	153.33	891.714	377.234	-133.456	914.477	363.431	19.783	948.102	186.182	178.716	438.583	246.5	52.241	396.45	227.786	166.931	283.943	-101.763	81.297	241.739	-84.309	97.253	345.254	-172.547	202.311	172.613	-153.256	104.295	123.943	-125.787	162.608	79.154	-110.41	-151.308	466.14	440.389	-9.499	446.007	448.519	-87.596	91.244	340.082	-2.422	109.976	379.708	-25.084	41.952	258.263	-136.165	38.356	454.972	-29.602	37.191	484.732	-84.807	53.808	524.431
2409	12.04	-52.033	1679.419	353.803	174.66	1403.94	349.617	-220.267	1371.496	326.429	-19.414	1339.399	434.189	153.488	888.554	376.283	-134.364	912.536	363.356	20.598	944.813	185.659	178.655	434.943	253.149	52.013	392.966	235.003	166.814	286.004	-96.071	80.915	243.774	-79.938	97.794	347.869	-167.311	202.727	175.194	-147.802	104.436	126.249	-121.872	162.629	81.406	-106.12	-152.328	463.108	438.346	-10.641	443.112	446.99	-87.361	91.369	330.143	-1.961	109.426	370.037	-24.956	42.286	247.945	-136.255	38.288	444.606	-29.603	36.617	474.468	-84.839	53.004	514.324
2410	12.045	-52.687	1677.033	353.717	174.729	1401.472	348.3	-220.835	1368.077	327.294	-18.856	1336.745	434.032	153.777	885.761	375.191	-135.087	910.515	363.304	20.112	942.126	184.915	178.561	431.604	259.874	52.528	389.562	242.234	166.602	287.818	-89.881	80.402	245.694	-75.119	98.148	350.177	-161.832	202.97	177.363	-141.611	104.423	128.311	-117.222	162.436	83.417	-100.91	-153.415	459.947	434.816	-11.773	439.784	444.737	-87.108	91.517	319.974	-1.174	108.788	360.003	-24.703	42.614	237.57	-136.513	38.552	434.27	-29.594	36.158	464.438	-84.847	52.296	504.074
2411	12.05	-53.31	1674.883	353.681	174.431	1399.417	346.826	-221.532	1365.016	328.387	-18.176	1334.441	433.81	154.113	883.451	373.955	-135.632	908.529	363.275	19.163	939.989	184.238	178.52	428.573	266.666	51.672	387.071	249.296	166.285	289.416	-83.271	79.785	247.474	-69.846	98.519	352.112	-156.131	203.111	179.142	-134.682	104.268	130.109	-111.829	162.054	85.17	-94.791	-154.423	456.794	430.307	-12.897	436.233	441.803	-86.792	91.703	309.725	-0.313	108.172	349.891	-24.313	42.94	227.153	-136.759	38.904	423.784	-29.564	35.709	454.334	-84.827	51.631	493.72
2412	12.055	-53.912	1672.946	353.702	174.489	1397.56	345.419	-222.025	1362.168	329.325	-17.471	1332.504	433.553	154.311	881.678	372.591	-136.025	906.639	363.284	18.151	938.344	183.709	178.375	425.796	273.499	52.163	384.361	256.487	165.89	290.747	-76.294	79.098	249.083	-64.106	98.856	353.618	-150.26	203.112	180.517	-127.131	103.994	131.61	-105.671	161.514	86.65	-87.799	-155.317	453.818	425.078	-13.988	432.767	438.312	-86.455	91.944	299.422	0.562	107.609	339.695	-23.895	43.331	216.654	-136.968	39.254	413.213	-29.5	35.274	444.14	-84.792	50.99	483.27
